<?xml version="1.0" standalone="no"?>
<!DOCTYPE svg PUBLIC "-//W3C//DTD SVG 20010904//EN"
 "http://www.w3.org/TR/2001/REC-SVG-20010904/DTD/svg10.dtd">
<svg version="1.0" xmlns="http://www.w3.org/2000/svg"
 width="1044.000000pt" height="1044.000000pt" viewBox="0 0 1044.000000 1044.000000"
 preserveAspectRatio="xMidYMid meet">
<metadata>
Created by potrace 1.14, written by Peter Selinger 2001-2017
</metadata>
<g transform="translate(0.000000,1044.000000) scale(0.100000,-0.100000)"
fill="#000000" stroke="none">
<path d="M0 7154 l0 -3286 32 6 c18 3 70 9 114 12 l82 7 38 -43 c21 -23 50
-47 64 -52 47 -19 170 -37 199 -28 23 6 30 4 45 -19 10 -14 35 -39 57 -55 21
-17 34 -33 29 -36 -21 -13 48 -86 136 -146 50 -33 126 -75 169 -93 44 -17 86
-35 94 -39 9 -5 21 -46 32 -108 27 -160 67 -255 114 -270 46 -15 118 -75 150
-124 49 -76 40 -109 -89 -307 -35 -55 -77 -129 -91 -164 -15 -35 -31 -69 -36
-75 -21 -25 -21 -130 0 -244 33 -177 16 -200 -140 -200 -94 0 -189 31 -238 78
-30 29 -41 49 -50 93 -18 86 -17 246 2 304 8 28 19 66 22 85 6 30 66 175 97
233 6 12 5 23 -2 32 -9 10 -6 19 9 34 12 12 25 21 29 21 4 0 16 14 26 31 14
24 16 36 7 57 -5 15 -11 38 -13 52 -2 19 -9 25 -28 25 -22 0 -25 -5 -28 -38
-2 -21 2 -45 8 -53 13 -14 11 -15 -29 -26 -8 -2 -22 -24 -31 -48 -18 -47 -38
-58 -85 -46 -26 7 -115 84 -145 126 l-20 29 92 47 c182 91 278 159 278 195 0
33 -29 34 -63 2 -40 -37 -119 -84 -262 -156 -243 -121 -368 -210 -395 -281
-13 -34 -13 -49 0 -41 13 8 13 0 -5 -65 -8 -30 -13 -55 -12 -56 8 -8 29 20 62
84 21 40 49 84 61 98 22 23 25 24 61 10 68 -26 206 -55 289 -60 110 -7 114 -9
107 -54 -3 -20 -14 -51 -24 -68 -11 -17 -19 -38 -19 -47 0 -8 -14 -47 -30 -85
-17 -39 -30 -80 -30 -92 0 -21 -2 -21 -172 -17 -95 3 -184 6 -198 8 -21 3 -25
0 -25 -21 0 -34 52 -48 190 -50 152 -3 97 -18 -70 -19 -185 -2 -212 -11 -273
-91 -27 -36 -59 -74 -71 -84 -15 -14 -21 -31 -21 -64 0 -45 0 -45 21 -26 11
10 49 57 85 104 l64 87 63 11 c83 14 275 16 292 2 9 -7 26 -8 56 -1 24 6 47 7
50 3 3 -4 11 -38 18 -76 19 -111 42 -144 131 -194 l25 -14 -25 7 c-14 4 -96 9
-182 12 -192 7 -308 -6 -459 -53 -61 -19 -118 -34 -125 -34 -12 0 -14 -144
-14 -900 l0 -900 816 0 817 0 -7 157 -6 158 27 47 c16 25 50 70 76 98 74 81
97 134 97 225 0 80 13 94 25 26 4 -22 20 -61 37 -87 16 -27 39 -75 49 -109 37
-118 50 -145 69 -145 25 0 30 20 9 41 -22 22 -49 110 -49 161 0 25 -9 53 -27
78 -15 24 -26 53 -25 72 1 25 -10 44 -46 84 -26 29 -63 71 -82 94 -53 63 -62
65 -110 25 -33 -27 -51 -35 -82 -35 l-41 0 7 47 c4 30 -3 109 -18 213 -13 91
-27 190 -31 220 -5 45 -15 67 -55 120 l-49 65 77 6 c54 4 100 16 154 38 59 25
81 30 96 22 21 -11 83 -83 124 -145 30 -45 195 -196 214 -196 7 0 15 8 19 17
4 13 -17 40 -88 108 -52 49 -98 98 -103 107 -19 35 -156 178 -171 178 -9 0
-55 -16 -103 -35 -48 -19 -115 -38 -149 -42 -61 -6 -63 -5 -184 56 -67 34
-138 72 -157 83 -19 11 -66 33 -103 48 l-68 27 73 6 c101 8 131 21 156 66 26
46 27 77 7 191 -8 47 -15 108 -15 137 0 52 0 53 52 86 29 19 64 46 77 60 l24
26 66 -65 c88 -86 187 -154 324 -220 62 -29 126 -67 142 -84 32 -33 62 -39 72
-13 10 27 -66 86 -182 142 -173 82 -288 169 -387 290 -40 49 -61 50 -79 4 -11
-30 -47 -73 -61 -73 -11 0 11 43 74 147 l50 82 88 -107 c154 -189 316 -300
522 -358 51 -15 94 -28 95 -28 1 -1 16 -97 33 -213 43 -306 108 -579 210 -885
33 -97 62 -194 65 -215 6 -35 4 -39 -25 -55 -39 -22 -73 -95 -95 -204 -16 -81
-16 -83 11 -195 35 -152 41 -181 49 -271 l7 -78 4064 0 4064 0 0 5220 0 5220
-5220 0 -5220 0 0 -3286z m4637 904 c-66 -82 -177 -242 -177 -257 0 -8 -27
-60 -60 -115 -140 -238 -268 -560 -336 -848 -15 -65 -31 -118 -34 -118 -4 0
-13 18 -20 40 -19 59 -72 116 -114 124 -53 10 -226 8 -263 -3 -18 -5 -33 -6
-33 -2 0 11 149 247 218 346 147 210 366 462 542 625 113 104 303 261 309 255
2 -2 -13 -23 -32 -47z m1611 -275 c-78 -234 -138 -629 -138 -909 0 -117 23
-354 45 -471 8 -42 14 -78 12 -79 -1 -1 -40 9 -87 23 -47 13 -112 25 -145 26
-56 2 -67 -2 -160 -54 -60 -33 -106 -66 -115 -82 -8 -14 -12 -28 -10 -30 3 -2
84 -7 180 -10 171 -6 264 -16 345 -38 38 -10 42 -14 64 -75 69 -193 227 -411
349 -481 26 -14 49 -28 51 -30 2 -1 -1 -8 -7 -15 -6 -7 -12 -29 -14 -49 l-3
-35 -63 24 c-70 27 -108 59 -167 144 -24 34 -43 54 -49 48 -16 -16 -20 -108
-5 -127 13 -15 12 -16 -11 -9 -14 4 -59 9 -100 12 -71 6 -164 31 -220 59 -43
23 -100 89 -119 140 -22 59 -34 65 -57 29 -22 -32 -26 -156 -6 -175 20 -21 14
-28 -35 -34 -145 -18 -404 -76 -428 -95 -5 -5 -25 -12 -44 -17 -19 -5 -36 -14
-39 -21 -7 -21 29 -26 62 -9 46 23 197 64 320 87 134 24 184 25 96 1 -101 -27
-176 -58 -294 -119 -112 -58 -138 -77 -149 -104 -12 -33 66 -23 111 15 8 6 27
13 41 13 14 1 89 14 165 28 76 15 141 24 144 22 4 -5 -64 -36 -78 -36 -17 0
-161 -102 -231 -163 -121 -108 -238 -260 -224 -294 7 -21 19 -9 53 50 40 70
128 165 236 255 66 54 121 89 212 133 110 53 130 59 186 59 58 0 232 -30 244
-42 2 -3 -25 -27 -61 -53 -119 -88 -229 -244 -265 -376 -41 -152 -25 -412 33
-525 33 -64 135 -193 183 -231 50 -39 62 -45 169 -83 113 -40 283 -52 378 -27
62 16 62 16 14 -45 -17 -21 -34 -35 -39 -32 -4 3 -25 -5 -45 -17 -20 -12 -50
-23 -67 -24 -17 0 -77 -2 -133 -3 -84 -2 -103 -5 -103 -17 0 -11 12 -15 50
-15 43 0 50 -3 50 -20 0 -35 30 -41 76 -14 23 14 56 26 73 29 l32 4 -30 -37
c-73 -93 -251 -267 -339 -333 -116 -87 -173 -139 -166 -151 9 -14 -44 -50
-156 -104 -73 -35 -151 -86 -255 -165 -82 -63 -166 -121 -185 -129 -22 -8
-108 -87 -225 -204 -148 -149 -198 -205 -224 -255 l-34 -64 -191 6 c-375 11
-748 38 -891 63 l-98 18 -76 76 c-42 42 -89 91 -106 110 -16 20 -44 47 -61 61
-33 27 -121 128 -169 194 -48 66 -98 115 -118 115 -10 0 -16 4 -12 9 3 6 -21
41 -54 80 -106 122 -198 258 -264 389 -77 152 -105 226 -152 409 -51 199 -49
271 11 508 47 188 90 342 122 435 22 66 22 130 -3 260 -34 180 -18 790 21 790
19 0 26 -18 11 -27 -17 -10 -29 -53 -13 -47 8 3 11 -54 11 -208 1 -189 3 -224
24 -308 33 -132 138 -366 117 -260 -35 179 -48 311 -41 445 10 232 48 415 89
437 15 8 21 8 24 -1 2 -6 8 -11 14 -11 6 0 26 -13 45 -30 19 -17 45 -30 60
-30 23 0 25 3 20 29 -3 16 -3 45 0 65 7 44 28 51 109 41 l56 -7 -35 -36 c-19
-21 -61 -77 -91 -127 -95 -151 -131 -303 -124 -521 5 -139 13 -173 74 -301 63
-131 197 -243 294 -243 115 0 191 50 241 158 l27 57 -4 -45 c-2 -25 -3 -66 -3
-91 -1 -38 -5 -48 -26 -59 -14 -7 -25 -17 -25 -22 0 -13 34 -9 56 7 23 15 25
39 42 402 4 78 10 145 15 149 4 4 7 -5 7 -19 0 -35 17 -35 27 1 15 51 7 302
-11 377 -37 149 -80 241 -160 341 -48 60 -68 76 -158 124 -75 40 -107 63 -118
85 -35 68 -37 70 -54 56 -8 -7 -18 -33 -22 -57 -5 -34 -10 -44 -25 -44 -11 0
-19 3 -19 6 0 30 240 517 269 547 14 14 159 -40 238 -89 101 -62 185 -123 198
-143 5 -9 8 -86 7 -181 -3 -179 10 -263 62 -376 31 -67 87 -143 105 -144 8 0
24 -9 35 -19 26 -24 118 -71 140 -71 9 0 19 -7 22 -15 7 -18 34 -20 34 -2 0 6
-9 31 -20 54 -64 142 -51 372 45 798 20 88 38 165 40 170 2 6 1 -51 -2 -125
-5 -140 19 -416 53 -598 17 -97 56 -210 91 -267 32 -51 113 -135 131 -135 7 0
23 -11 35 -24 31 -33 204 -103 219 -88 8 8 2 19 -24 44 -90 84 -148 281 -162
543 -4 84 -3 90 4 34 30 -237 118 -440 238 -550 86 -79 148 -104 250 -103 56
0 86 5 91 13 5 7 -2 47 -16 89 -13 43 -26 117 -30 167 -9 137 18 466 56 688
11 64 137 331 241 512 151 263 412 622 579 798 25 26 46 47 47 47 1 0 -7 -26
-18 -57z m336 -1105 c19 -147 59 -328 95 -427 22 -59 26 -84 20 -111 -5 -19
-9 -55 -10 -80 -4 -90 -14 -88 -47 6 -43 121 -88 304 -103 422 -15 113 -18
592 -5 637 7 23 12 -12 22 -150 7 -99 20 -233 28 -297z m-2107 140 c-3 -8 -6
-5 -6 6 -1 11 2 17 5 13 3 -3 4 -12 1 -19z m2713 -129 c-38 -224 -51 -486 -30
-599 6 -29 9 -55 7 -57 -6 -6 -107 194 -126 249 l-18 53 42 125 c23 69 48 139
54 155 19 49 84 185 87 183 1 -2 -6 -50 -16 -109z m-3976 -66 c-42 -95 -74
-184 -89 -246 -16 -61 -19 -66 -37 -56 -32 17 -31 34 7 115 34 75 122 224 131
224 2 0 -3 -17 -12 -37z m-165 -389 c1 -13 -29 -28 -37 -20 -2 3 1 20 8 37 12
28 15 30 21 13 4 -10 8 -24 8 -30z m3878 -374 c15 -27 31 -50 35 -50 3 0 28
-39 55 -87 33 -61 75 -115 135 -178 49 -49 88 -92 88 -93 0 -2 -12 6 -27 18
-16 11 -80 55 -143 97 -188 123 -194 133 -184 258 4 47 8 85 10 85 1 0 15 -22
31 -50z m-4162 -247 l-7 -73 -51 0 c-72 -1 -137 -20 -180 -53 -36 -27 -49 -57
-26 -57 8 0 8 -4 0 -14 -7 -8 -11 -38 -9 -72 3 -49 7 -60 31 -78 26 -19 28
-19 45 -2 16 17 16 19 -5 33 -18 12 -23 25 -23 57 0 22 -4 48 -9 56 -20 30 94
80 183 80 41 0 46 -2 45 -22 0 -13 -4 -32 -8 -43 -5 -12 -3 -25 6 -33 7 -7 13
-34 13 -60 1 -26 5 -67 11 -92 19 -88 27 -263 13 -295 -7 -16 -31 -95 -54
-175 -23 -80 -43 -147 -45 -148 -10 -11 -97 64 -125 108 -40 63 -112 239 -139
345 -45 169 -50 425 -9 425 5 0 27 13 48 30 21 16 91 62 156 100 65 39 123 75
129 81 15 15 18 -13 10 -98z m4148 -217 c39 -30 192 -101 249 -116 l41 -11 -7
-67 c-4 -37 -11 -84 -17 -104 l-10 -38 -27 24 c-61 53 -202 173 -231 196 -26
21 -32 34 -37 83 -4 31 -4 57 0 57 4 0 22 -11 39 -24z m-3363 -151 c22 -23 43
-35 61 -35 38 0 67 -50 76 -129 l6 -62 -61 -60 c-53 -51 -66 -59 -99 -59 -44
1 -153 47 -193 82 -15 13 -40 48 -54 77 l-27 52 27 49 c15 27 34 56 43 64 36
32 97 56 141 56 39 0 51 -5 80 -35z m2836 -732 c45 -34 118 -46 158 -26 82 42
177 -95 163 -236 -7 -65 -14 -71 -106 -103 -126 -44 -293 -27 -434 44 -62 31
-77 52 -77 108 0 66 27 118 85 166 42 34 128 73 163 74 7 0 29 -12 48 -27z
m2711 -845 c24 -49 113 -245 113 -251 0 -6 -132 -93 -176 -115 l-40 -21 -1 32
c0 18 -4 75 -8 127 -7 82 -5 97 8 109 15 12 14 17 -10 59 -15 25 -23 47 -18
49 6 2 30 14 55 28 25 13 47 24 50 24 3 1 15 -18 27 -41z m-8607 -827 c0 -5
21 -35 46 -65 45 -56 45 -57 17 -50 -89 20 -183 48 -183 55 0 8 99 68 113 69
4 0 7 -4 7 -9z m5307 -191 c-5 -36 -11 -66 -12 -68 -5 -6 -118 -23 -122 -18
-3 3 27 39 67 81 40 41 74 74 76 72 1 -1 -3 -31 -9 -67z m-4322 0 c3 -5 1 -10
-4 -10 -6 0 -11 5 -11 10 0 6 2 10 4 10 3 0 8 -4 11 -10z m3336 -266 l86 -6
-39 -120 c-21 -66 -38 -133 -38 -149 0 -16 -5 -60 -12 -97 -12 -69 -8 -96 28
-219 5 -19 2 -23 -14 -23 -38 0 -71 -74 -87 -197 -8 -59 -15 -112 -15 -117 0
-4 -8 -5 -17 -1 -10 5 -67 11 -128 14 l-110 6 -6 200 c-6 217 -16 271 -57 318
-96 106 -120 117 -261 117 -114 0 -137 10 -180 81 -32 52 -26 64 14 33 20 -15
66 -35 103 -46 59 -17 104 -24 267 -45 58 -7 168 22 236 62 l60 35 15 -35 c45
-108 45 -247 0 -338 -20 -41 -25 -62 -18 -69 18 -18 37 -2 67 58 28 55 30 67
30 169 0 111 -3 124 -56 254 -8 18 -36 56 -64 84 l-50 50 80 -6 c44 -4 119 -9
166 -13z m-3055 -1543 c14 -17 8 -176 -8 -239 -13 -52 -132 -190 -145 -169 -4
7 -11 73 -15 147 -4 74 -10 161 -14 193 l-6 57 29 0 c17 0 50 11 74 24 45 24
57 22 85 -13z"/>
<path d="M3470 6392 c0 -5 25 -14 55 -21 30 -7 81 -26 114 -42 53 -27 62 -36
95 -99 21 -39 44 -92 52 -120 8 -27 20 -52 26 -56 19 -12 3 69 -25 128 -14 29
-23 56 -20 61 5 8 67 -57 88 -92 5 -9 12 -35 15 -59 3 -23 10 -44 15 -45 12
-2 19 46 11 78 -11 44 -95 133 -169 179 -99 62 -257 116 -257 88z"/>
<path d="M3830 6052 c0 -18 28 -45 39 -38 9 6 8 13 -5 27 -18 20 -34 25 -34
11z"/>
<path d="M5543 5915 c-68 -34 -115 -89 -111 -130 4 -40 38 -49 38 -10 0 38 32
79 82 105 42 22 48 22 263 16 134 -4 246 -13 285 -22 79 -18 177 -51 207 -70
28 -18 63 -18 63 -1 0 7 -30 24 -67 39 -175 67 -264 83 -548 93 -158 6 -161 5
-212 -20z"/>
<path d="M5845 5871 c-6 -5 -68 -28 -140 -51 -149 -48 -185 -65 -185 -85 0
-19 13 -19 51 0 16 9 59 25 95 36 126 39 224 81 224 95 0 16 -31 19 -45 5z"/>
<path d="M2984 5047 c-32 -47 -44 -73 -44 -94 0 -15 8 -18 48 -18 65 0 85 -23
67 -76 -16 -43 -12 -49 30 -49 23 0 41 -10 72 -42 23 -24 43 -52 45 -63 2 -15
10 -19 30 -17 14 2 54 -4 88 -13 62 -16 97 -14 85 4 -3 6 -27 13 -53 17 -68
10 -122 38 -178 94 -63 63 -113 145 -134 223 -9 33 -21 62 -26 64 -5 2 -19
-12 -30 -30z"/>
<path d="M5155 4812 c-55 -51 -58 -56 -41 -95 15 -38 48 -62 72 -53 20 8 17
24 -6 31 -11 3 -25 16 -31 27 -9 17 -6 26 25 57 57 59 40 88 -19 33z"/>
<path d="M3732 4397 c-22 -27 -33 -69 -21 -83 18 -21 30 -17 24 9 -4 15 1 32
14 49 12 14 21 29 21 32 0 11 -27 6 -38 -7z"/>
<path d="M5396 4341 c-15 -24 100 -152 193 -214 62 -42 222 -127 261 -139 11
-4 10 -7 -8 -17 -12 -6 -22 -18 -22 -26 0 -16 16 -20 24 -6 12 18 82 17 139
-2 54 -18 57 -20 57 -53 0 -19 2 -34 5 -34 2 0 23 10 45 21 23 12 56 25 73 28
57 12 38 26 -56 42 -109 19 -271 81 -414 161 -98 54 -200 139 -244 203 -25 36
-45 50 -53 36z"/>
<path d="M6465 3880 c-3 -5 -2 -10 4 -10 5 0 13 5 16 10 3 6 2 10 -4 10 -5 0
-13 -4 -16 -10z"/>
<path d="M3677 3533 c-4 -3 -7 -17 -7 -29 0 -28 29 -39 64 -23 23 11 32 8 83
-23 60 -38 99 -46 146 -33 48 13 24 45 -35 45 -28 0 -54 10 -91 35 -42 29 -61
35 -103 35 -28 0 -54 -3 -57 -7z"/>
<path d="M3984 3419 c-3 -6 20 -37 55 -70 l61 -59 69 0 c76 0 101 -6 101 -24
0 -6 15 -23 34 -38 28 -23 36 -25 51 -15 12 10 15 20 9 41 -8 33 -38 47 -134
65 -120 22 -137 29 -170 71 -31 39 -62 51 -76 29z"/>
<path d="M77 3718 c-67 -44 -77 -54 -77 -80 l0 -30 38 23 c20 12 71 44 112 71
41 26 80 48 86 48 7 0 16 5 19 10 4 6 -14 10 -47 9 -46 -1 -63 -7 -131 -51z"/>
<path d="M359 3403 c-52 -43 -154 -125 -226 -181 -127 -98 -133 -105 -133
-139 0 -27 3 -33 13 -26 294 228 450 358 461 382 4 8 0 21 -7 28 -12 12 -28 3
-108 -64z"/>
<path d="M45 2440 c-42 -84 -46 -97 -43 -153 l3 -62 63 129 c71 146 77 169 45
174 -18 3 -29 -11 -68 -88z"/>
</g>
</svg>
